<svg xmlns="http://www.w3.org/2000/svg" viewBox="0 0 128 128">
  <path fill="#68217A" d="M117.5 33.5l.3-.2c-.6-1.1-1.5-2.1-2.4-2.6L67.1 2.9c-.8-.5-1.9-.7-3.1-.7-1.2 0-2.3.3-3.1.7l-48 27.9c-1.7 1-2.9 3.5-2.9 5.4v55.7c0 1.1.2 2.3.9 3.4l-.2.1c.5.8 1.2 1.5 1.9 1.9l48.2 27.9c.8.5 1.9.7 3.1.7 1.2 0 2.3-.3 3.1-.7l48-27.9c1.7-1 2.9-3.5 2.9-5.4V36.1c.1-.8 0-1.7-.4-2.6zM82 91.8h-4.3v4.3h-4.3v-4.3H69v-4.3h4.3v-4.3h4.3v4.3H82v4.3zm17.1-17.1h-4.3v4.3h-4.3v-4.3h-4.3v-4.3h4.3v-4.3h4.3v4.3h4.3v4.3zM82 57.5h-4.3v4.3h-4.3v-4.3H69v-4.3h4.3V49h4.3v4.3H82v4.2zm17.1-17.1h-4.3v4.3h-4.3v-4.3h-4.3V36h4.3v-4.3h4.3V36h4.3v4.4z"/>
</svg> 