<svg xmlns="http://www.w3.org/2000/svg" viewBox="0 0 128 128">
  <path fill="#512BD4" d="M61.195.008C45.811.008 30.427 3.275 30.427 3.275l-.035 118.125s15.384 3.267 30.768 3.267c15.384 0 30.768-3.267 30.768-3.267V3.275S76.58.008 61.195.008zm0 112.125c-10.923 0-21.846-1.733-21.846-1.733V10.392s10.923-1.733 21.846-1.733 21.846 1.733 21.846 1.733v100.008s-10.923 1.733-21.846 1.733z"/>
  <path fill="#512BD4" d="M94.195 21.725V10.392s-10.923-1.733-21.846-1.733-21.846 1.733-21.846 1.733v11.333s10.923-1.733 21.846-1.733 21.846 1.733 21.846 1.733z"/>
  <path fill="#512BD4" d="M94.195 33.058V21.725s-10.923-1.733-21.846-1.733-21.846 1.733-21.846 1.733v11.333s10.923-1.733 21.846-1.733 21.846 1.733 21.846 1.733z"/>
</svg> 